# xmcd
# 
# Track frame offsets:
#   150
#   17141
#   42822
#   58264
#   75497
#   90646
#   105761
#   122308
#   139057
#   154789
#   168949
#   185992
#   208054
#   225240
#   240391
# 
# Disc length: 3448 seconds
# 
# Revision: 2
# Processed by: cddbd v1.5.2PL0 Copyright (c) Steve Scherf et al.
# Submitted via: Synapstar 1.0 
# 
DISCID=b20d760f
DTITLE=Country - CB60200
DYEAR=2000
DGENRE=Country
TTITLE0=You Ain't Hurt Nothin' Yet
TTITLE1=Cold Day In July
TTITLE2=Work This Out
TTITLE3=That's The Way
TTITLE4=Surprise
TTITLE5=Blue Collar Dollar
TTITLE6=There You Are
TTITLE7=Easy Makin' Love
TTITLE8=Goodbye Is The Wrong Way To Go
TTITLE9=Good Times
TTITLE10=We Made Love
TTITLE11=Motorcycle Cowboy
TTITLE12=End Of The World
TTITLE13=It Must Be Love
TTITLE14=What If It's Me
EXTD=
EXTT0=
EXTT1=
EXTT2=
EXTT3=
EXTT4=
EXTT5=
EXTT6=
EXTT7=
EXTT8=
EXTT9=
EXTT10=
EXTT11=
EXTT12=
EXTT13=
EXTT14=
PLAYORDER=
